<?xml version="1.0" standalone="no"?>
<!DOCTYPE svg PUBLIC "-//W3C//DTD SVG 20010904//EN"
 "http://www.w3.org/TR/2001/REC-SVG-20010904/DTD/svg10.dtd">
<svg version="1.0" xmlns="http://www.w3.org/2000/svg"
 width="512.000000pt" height="512.000000pt" viewBox="0 0 512.000000 512.000000"
 preserveAspectRatio="xMidYMid meet">

<g transform="translate(0.000000,512.000000) scale(0.100000,-0.100000)"
fill="#000000" stroke="none">
<path d="M2460 4914 c-450 -30 -848 -161 -1205 -399 -150 -100 -230 -166 -364
-297 -393 -389 -631 -875 -702 -1433 -15 -120 -15 -425 0 -550 32 -262 117
-547 231 -781 348 -711 1028 -1207 1814 -1325 183 -28 485 -30 661 -5 205 29
396 79 578 152 803 323 1371 1052 1493 1919 23 162 23 468 0 630 -152 1084
-1004 1933 -2076 2070 -114 15 -342 25 -430 19z m341 -214 c739 -75 1397 -525
1737 -1187 106 -206 178 -428 219 -671 28 -167 25 -525 -6 -696 -53 -301 -170
-600 -326 -834 l-49 -74 -22 84 c-60 224 -184 452 -308 566 -143 132 -283 178
-616 202 -80 5 -155 13 -166 16 -17 4 -23 0 -28 -21 -11 -43 -91 -114 -169
-150 -295 -135 -799 -118 -1036 35 -57 37 -111 99 -111 128 0 10 -7 12 -22 8
-13 -3 -88 -11 -168 -16 -179 -14 -304 -34 -394 -65 -235 -81 -422 -329 -526
-693 l-26 -93 -48 72 c-68 102 -147 255 -199 384 -326 813 -136 1741 483 2364
347 349 810 577 1295 636 137 16 350 18 486 5z"/>
<path d="M2442 4390 c-280 -35 -499 -162 -631 -365 -74 -113 -103 -217 -143
-520 -10 -73 -16 -93 -35 -108 -30 -24 -43 -75 -43 -177 0 -144 45 -276 115
-338 29 -26 52 -60 75 -112 79 -181 184 -334 316 -459 50 -47 116 -101 147
-120 285 -169 560 -121 823 144 115 116 242 314 304 475 8 19 30 49 50 67 111
97 160 426 77 521 -10 12 -16 55 -20 147 -11 238 -59 391 -170 542 -81 110
-223 209 -367 256 -130 43 -356 64 -498 47z m-112 -769 c120 -27 284 -29 389
-6 46 11 102 16 154 13 72 -3 93 -8 170 -45 49 -24 91 -43 93 -43 1 0 -3 19
-12 42 -16 45 -15 51 9 42 36 -14 103 -134 146 -266 20 -61 24 -66 49 -65 39
3 56 -40 55 -133 -2 -123 -63 -250 -113 -237 -16 4 -23 -5 -39 -49 -62 -165
-156 -312 -275 -429 -133 -132 -246 -185 -393 -185 -80 0 -168 24 -240 66
-158 91 -322 298 -403 508 -28 72 -37 86 -56 86 -12 0 -35 14 -51 34 -83 94
-81 359 3 344 13 -2 20 8 29 49 26 116 106 227 190 267 85 41 140 42 295 7z"/>
</g>
</svg>
